<svg width="234" height="82" viewBox="0 0 234 82" fill="none" xmlns="http://www.w3.org/2000/svg">
<path d="M30.666 21.176L24.168 42H20.596L15.58 25.47L10.564 42H6.992L0.456 21.176H3.99L8.778 38.656L13.946 21.176H17.48L22.534 38.694L27.246 21.176H30.666ZM53.0979 30.79C53.0979 31.4487 53.0599 32.1453 52.9839 32.88H36.3399C36.4665 34.932 37.1632 36.5407 38.4299 37.706C39.7219 38.846 41.2799 39.416 43.1039 39.416C44.5985 39.416 45.8399 39.074 46.8279 38.39C47.8412 37.6807 48.5505 36.7433 48.9559 35.578H52.6799C52.1225 37.5793 51.0079 39.2133 49.3359 40.48C47.6639 41.7213 45.5865 42.342 43.1039 42.342C41.1279 42.342 39.3545 41.8987 37.7839 41.012C36.2385 40.1253 35.0225 38.8713 34.1359 37.25C33.2492 35.6033 32.8059 33.7033 32.8059 31.55C32.8059 29.3967 33.2365 27.5093 34.0979 25.888C34.9592 24.2667 36.1625 23.0253 37.7079 22.164C39.2785 21.2773 41.0772 20.834 43.1039 20.834C45.0799 20.834 46.8279 21.2647 48.3479 22.126C49.8679 22.9873 51.0332 24.178 51.8439 25.698C52.6799 27.1927 53.0979 28.89 53.0979 30.79ZM49.5259 30.068C49.5259 28.7507 49.2345 27.6233 48.6519 26.686C48.0692 25.7233 47.2712 25.0013 46.2579 24.52C45.2699 24.0133 44.1679 23.76 42.9519 23.76C41.2039 23.76 39.7092 24.3173 38.4679 25.432C37.2519 26.5467 36.5552 28.092 36.3779 30.068H49.5259ZM61.1203 25.052C61.8297 23.8107 62.8683 22.7973 64.2363 22.012C65.6043 21.2267 67.1623 20.834 68.9103 20.834C70.785 20.834 72.4697 21.2773 73.9643 22.164C75.459 23.0507 76.637 24.3047 77.4983 25.926C78.3597 27.522 78.7903 29.384 78.7903 31.512C78.7903 33.6147 78.3597 35.4893 77.4983 37.136C76.637 38.7827 75.4463 40.062 73.9263 40.974C72.4317 41.886 70.7597 42.342 68.9103 42.342C67.1117 42.342 65.5283 41.9493 64.1603 41.164C62.8177 40.3787 61.8043 39.378 61.1203 38.162V42H57.6623V13.88H61.1203V25.052ZM75.2563 31.512C75.2563 29.9413 74.9397 28.5733 74.3063 27.408C73.673 26.2427 72.8117 25.356 71.7223 24.748C70.6583 24.14 69.4803 23.836 68.1883 23.836C66.9217 23.836 65.7437 24.1527 64.6543 24.786C63.5903 25.394 62.729 26.2933 62.0703 27.484C61.437 28.6493 61.1203 30.0047 61.1203 31.55C61.1203 33.1207 61.437 34.5013 62.0703 35.692C62.729 36.8573 63.5903 37.7567 64.6543 38.39C65.7437 38.998 66.9217 39.302 68.1883 39.302C69.4803 39.302 70.6583 38.998 71.7223 38.39C72.8117 37.7567 73.673 36.8573 74.3063 35.692C74.9397 34.5013 75.2563 33.108 75.2563 31.512ZM97.782 26.61V29.536H82.62V26.61H97.782ZM115.9 42L107.73 32.804V42H104.272V13.88H107.73V30.41L115.748 21.176H120.574L110.77 31.55L120.612 42H115.9ZM142.828 30.79C142.828 31.4487 142.79 32.1453 142.714 32.88H126.07C126.197 34.932 126.894 36.5407 128.16 37.706C129.452 38.846 131.01 39.416 132.834 39.416C134.329 39.416 135.57 39.074 136.558 38.39C137.572 37.6807 138.281 36.7433 138.686 35.578H142.41C141.853 37.5793 140.738 39.2133 139.066 40.48C137.394 41.7213 135.317 42.342 132.834 42.342C130.858 42.342 129.085 41.8987 127.514 41.012C125.969 40.1253 124.753 38.8713 123.866 37.25C122.98 35.6033 122.536 33.7033 122.536 31.55C122.536 29.3967 122.967 27.5093 123.828 25.888C124.69 24.2667 125.893 23.0253 127.438 22.164C129.009 21.2773 130.808 20.834 132.834 20.834C134.81 20.834 136.558 21.2647 138.078 22.126C139.598 22.9873 140.764 24.178 141.574 25.698C142.41 27.1927 142.828 28.89 142.828 30.79ZM139.256 30.068C139.256 28.7507 138.965 27.6233 138.382 26.686C137.8 25.7233 137.002 25.0013 135.988 24.52C135 24.0133 133.898 23.76 132.682 23.76C130.934 23.76 129.44 24.3173 128.198 25.432C126.982 26.5467 126.286 28.092 126.108 30.068H139.256ZM157.729 20.796C159.299 20.796 160.718 21.138 161.985 21.822C163.251 22.4807 164.239 23.4813 164.949 24.824C165.683 26.1667 166.051 27.8007 166.051 29.726V42H162.631V30.22C162.631 28.1427 162.111 26.5593 161.073 25.47C160.034 24.3553 158.615 23.798 156.817 23.798C154.993 23.798 153.536 24.368 152.447 25.508C151.383 26.648 150.851 28.3073 150.851 30.486V42H147.393V13.88H150.851V24.14C151.535 23.076 152.472 22.2527 153.663 21.67C154.879 21.0873 156.234 20.796 157.729 20.796ZM173.485 17.794C172.827 17.794 172.269 17.566 171.813 17.11C171.357 16.654 171.129 16.0967 171.129 15.438C171.129 14.7793 171.357 14.222 171.813 13.766C172.269 13.31 172.827 13.082 173.485 13.082C174.119 13.082 174.651 13.31 175.081 13.766C175.537 14.222 175.765 14.7793 175.765 15.438C175.765 16.0967 175.537 16.654 175.081 17.11C174.651 17.566 174.119 17.794 173.485 17.794ZM175.157 21.176V42H171.699V21.176H175.157ZM185.269 24.026V36.3C185.269 37.3133 185.484 38.0353 185.915 38.466C186.346 38.8713 187.093 39.074 188.157 39.074H190.703V42H187.587C185.662 42 184.218 41.5567 183.255 40.67C182.292 39.7833 181.811 38.3267 181.811 36.3V24.026H179.113V21.176H181.811V15.932H185.269V21.176H190.703V24.026H185.269ZM212.829 21.176L200.289 51.804H196.717L200.821 41.772L192.423 21.176H196.261L202.797 38.048L209.257 21.176H212.829ZM223.677 42.342C222.081 42.342 220.65 42.076 219.383 41.544C218.116 40.9867 217.116 40.2267 216.381 39.264C215.646 38.276 215.241 37.1487 215.165 35.882H218.737C218.838 36.9207 219.32 37.7693 220.181 38.428C221.068 39.0867 222.22 39.416 223.639 39.416C224.956 39.416 225.995 39.1247 226.755 38.542C227.515 37.9593 227.895 37.2247 227.895 36.338C227.895 35.426 227.49 34.7547 226.679 34.324C225.868 33.868 224.614 33.4247 222.917 32.994C221.372 32.5887 220.105 32.1833 219.117 31.778C218.154 31.3473 217.318 30.7267 216.609 29.916C215.925 29.08 215.583 27.9907 215.583 26.648C215.583 25.584 215.9 24.6087 216.533 23.722C217.166 22.8353 218.066 22.1387 219.231 21.632C220.396 21.1 221.726 20.834 223.221 20.834C225.526 20.834 227.388 21.4167 228.807 22.582C230.226 23.7473 230.986 25.3433 231.087 27.37H227.629C227.553 26.2807 227.11 25.4067 226.299 24.748C225.514 24.0893 224.45 23.76 223.107 23.76C221.866 23.76 220.878 24.026 220.143 24.558C219.408 25.09 219.041 25.7867 219.041 26.648C219.041 27.332 219.256 27.902 219.687 28.358C220.143 28.7887 220.7 29.1433 221.359 29.422C222.043 29.6753 222.98 29.9667 224.171 30.296C225.666 30.7013 226.882 31.1067 227.819 31.512C228.756 31.892 229.554 32.4747 230.213 33.26C230.897 34.0453 231.252 35.0713 231.277 36.338C231.277 37.478 230.96 38.504 230.327 39.416C229.694 40.328 228.794 41.05 227.629 41.582C226.489 42.0887 225.172 42.342 223.677 42.342Z" fill="white"/>
<path d="M0.817 67.756C0.817 66.692 1.03233 65.761 1.463 64.963C1.89367 64.1523 2.48267 63.5253 3.23 63.082C3.99 62.6387 4.83233 62.417 5.757 62.417C6.669 62.417 7.46067 62.6133 8.132 63.006C8.80333 63.3987 9.30367 63.8927 9.633 64.488V62.588H11.381V73H9.633V71.062C9.291 71.67 8.778 72.1767 8.094 72.582C7.42267 72.9747 6.63733 73.171 5.738 73.171C4.81333 73.171 3.97733 72.943 3.23 72.487C2.48267 72.031 1.89367 71.3913 1.463 70.568C1.03233 69.7447 0.817 68.8073 0.817 67.756ZM9.633 67.775C9.633 66.9897 9.47467 66.3057 9.158 65.723C8.84133 65.1403 8.41067 64.697 7.866 64.393C7.334 64.0763 6.745 63.918 6.099 63.918C5.453 63.918 4.864 64.07 4.332 64.374C3.8 64.678 3.37567 65.1213 3.059 65.704C2.74233 66.2867 2.584 66.9707 2.584 67.756C2.584 68.554 2.74233 69.2507 3.059 69.846C3.37567 70.4287 3.8 70.8783 4.332 71.195C4.864 71.499 5.453 71.651 6.099 71.651C6.745 71.651 7.334 71.499 7.866 71.195C8.41067 70.8783 8.84133 70.4287 9.158 69.846C9.47467 69.2507 9.633 68.5603 9.633 67.775ZM26.8238 62.398C27.6345 62.398 28.3565 62.569 28.9898 62.911C29.6232 63.2403 30.1235 63.7407 30.4908 64.412C30.8582 65.0833 31.0418 65.9003 31.0418 66.863V73H29.3318V67.11C29.3318 66.0713 29.0722 65.2797 28.5528 64.735C28.0462 64.1777 27.3558 63.899 26.4818 63.899C25.5825 63.899 24.8668 64.1903 24.3348 64.773C23.8028 65.343 23.5368 66.1727 23.5368 67.262V73H21.8268V67.11C21.8268 66.0713 21.5672 65.2797 21.0478 64.735C20.5412 64.1777 19.8508 63.899 18.9768 63.899C18.0775 63.899 17.3618 64.1903 16.8298 64.773C16.2978 65.343 16.0318 66.1727 16.0318 67.262V73H14.3028V62.588H16.0318V64.089C16.3738 63.5443 16.8298 63.1263 17.3998 62.835C17.9825 62.5437 18.6222 62.398 19.3188 62.398C20.1928 62.398 20.9655 62.5943 21.6368 62.987C22.3082 63.3797 22.8085 63.956 23.1378 64.716C23.4292 63.9813 23.9105 63.4113 24.5818 63.006C25.2532 62.6007 26.0005 62.398 26.8238 62.398ZM46.399 62.398C47.2097 62.398 47.9317 62.569 48.565 62.911C49.1984 63.2403 49.6987 63.7407 50.066 64.412C50.4334 65.0833 50.617 65.9003 50.617 66.863V73H48.907V67.11C48.907 66.0713 48.6474 65.2797 48.128 64.735C47.6214 64.1777 46.931 63.899 46.057 63.899C45.1577 63.899 44.442 64.1903 43.91 64.773C43.378 65.343 43.112 66.1727 43.112 67.262V73H41.402V67.11C41.402 66.0713 41.1424 65.2797 40.623 64.735C40.1164 64.1777 39.426 63.899 38.552 63.899C37.6527 63.899 36.937 64.1903 36.405 64.773C35.873 65.343 35.607 66.1727 35.607 67.262V73H33.878V62.588H35.607V64.089C35.949 63.5443 36.405 63.1263 36.975 62.835C37.5577 62.5437 38.1974 62.398 38.894 62.398C39.768 62.398 40.5407 62.5943 41.212 62.987C41.8834 63.3797 42.3837 63.956 42.713 64.716C43.0044 63.9813 43.4857 63.4113 44.157 63.006C44.8284 62.6007 45.5757 62.398 46.399 62.398ZM52.8072 67.756C52.8072 66.692 53.0226 65.761 53.4532 64.963C53.8839 64.1523 54.4729 63.5253 55.2202 63.082C55.9802 62.6387 56.8226 62.417 57.7472 62.417C58.6592 62.417 59.4509 62.6133 60.1222 63.006C60.7936 63.3987 61.2939 63.8927 61.6232 64.488V62.588H63.3712V73H61.6232V71.062C61.2812 71.67 60.7682 72.1767 60.0842 72.582C59.4129 72.9747 58.6276 73.171 57.7282 73.171C56.8036 73.171 55.9676 72.943 55.2202 72.487C54.4729 72.031 53.8839 71.3913 53.4532 70.568C53.0226 69.7447 52.8072 68.8073 52.8072 67.756ZM61.6232 67.775C61.6232 66.9897 61.4649 66.3057 61.1482 65.723C60.8316 65.1403 60.4009 64.697 59.8562 64.393C59.3242 64.0763 58.7352 63.918 58.0892 63.918C57.4432 63.918 56.8542 64.07 56.3222 64.374C55.7902 64.678 55.3659 65.1213 55.0492 65.704C54.7326 66.2867 54.5742 66.9707 54.5742 67.756C54.5742 68.554 54.7326 69.2507 55.0492 69.846C55.3659 70.4287 55.7902 70.8783 56.3222 71.195C56.8542 71.499 57.4432 71.651 58.0892 71.651C58.7352 71.651 59.3242 71.499 59.8562 71.195C60.4009 70.8783 60.8316 70.4287 61.1482 69.846C61.4649 69.2507 61.6232 68.5603 61.6232 67.775ZM68.4021 64.013V70.15C68.4021 70.6567 68.5097 71.0177 68.7251 71.233C68.9404 71.4357 69.3141 71.537 69.8461 71.537H71.1191V73H69.5611C68.5984 73 67.8764 72.7783 67.3951 72.335C66.9137 71.8917 66.6731 71.1633 66.6731 70.15V64.013H65.3241V62.588H66.6731V59.966H68.4021V62.588H71.1191V64.013H68.4021ZM75.323 64.013V70.15C75.323 70.6567 75.4306 71.0177 75.646 71.233C75.8613 71.4357 76.235 71.537 76.767 71.537H78.04V73H76.482C75.5193 73 74.7973 72.7783 74.316 72.335C73.8346 71.8917 73.594 71.1633 73.594 70.15V64.013H72.245V62.588H73.594V59.966H75.323V62.588H78.04V64.013H75.323ZM81.0279 60.897C80.6985 60.897 80.4199 60.783 80.1919 60.555C79.9639 60.327 79.8499 60.0483 79.8499 59.719C79.8499 59.3897 79.9639 59.111 80.1919 58.883C80.4199 58.655 80.6985 58.541 81.0279 58.541C81.3445 58.541 81.6105 58.655 81.8259 58.883C82.0539 59.111 82.1679 59.3897 82.1679 59.719C82.1679 60.0483 82.0539 60.327 81.8259 60.555C81.6105 60.783 81.3445 60.897 81.0279 60.897ZM81.8639 62.588V73H80.1349V62.588H81.8639ZM86.9197 64.013V70.15C86.9197 70.6567 87.0273 71.0177 87.2427 71.233C87.458 71.4357 87.8317 71.537 88.3637 71.537H89.6367V73H88.0787C87.116 73 86.394 72.7783 85.9127 72.335C85.4313 71.8917 85.1907 71.1633 85.1907 70.15V64.013H83.8417V62.588H85.1907V59.966H86.9197V62.588H89.6367V64.013H86.9197ZM91.0856 67.756C91.0856 66.692 91.3009 65.761 91.7316 64.963C92.1622 64.1523 92.7512 63.5253 93.4986 63.082C94.2586 62.6387 95.1009 62.417 96.0256 62.417C96.9376 62.417 97.7292 62.6133 98.4006 63.006C99.0719 63.3987 99.5722 63.8927 99.9016 64.488V62.588H101.65V73H99.9016V71.062C99.5596 71.67 99.0466 72.1767 98.3626 72.582C97.6912 72.9747 96.9059 73.171 96.0066 73.171C95.0819 73.171 94.2459 72.943 93.4986 72.487C92.7512 72.031 92.1622 71.3913 91.7316 70.568C91.3009 69.7447 91.0856 68.8073 91.0856 67.756ZM99.9016 67.775C99.9016 66.9897 99.7432 66.3057 99.4266 65.723C99.1099 65.1403 98.6792 64.697 98.1346 64.393C97.6026 64.0763 97.0136 63.918 96.3676 63.918C95.7216 63.918 95.1326 64.07 94.6006 64.374C94.0686 64.678 93.6442 65.1213 93.3276 65.704C93.0109 66.2867 92.8526 66.9707 92.8526 67.756C92.8526 68.554 93.0109 69.2507 93.3276 69.846C93.6442 70.4287 94.0686 70.8783 94.6006 71.195C95.1326 71.499 95.7216 71.651 96.3676 71.651C97.0136 71.651 97.6026 71.499 98.1346 71.195C98.6792 70.8783 99.1099 70.4287 99.4266 69.846C99.7432 69.2507 99.9016 68.5603 99.9016 67.775ZM105.464 60.897C105.135 60.897 104.856 60.783 104.628 60.555C104.4 60.327 104.286 60.0483 104.286 59.719C104.286 59.3897 104.4 59.111 104.628 58.883C104.856 58.655 105.135 58.541 105.464 58.541C105.781 58.541 106.047 58.655 106.262 58.883C106.49 59.111 106.604 59.3897 106.604 59.719C106.604 60.0483 106.49 60.327 106.262 60.555C106.047 60.783 105.781 60.897 105.464 60.897ZM106.3 62.588V73H104.571V62.588H106.3ZM111.356 64.013V70.15C111.356 70.6567 111.464 71.0177 111.679 71.233C111.895 71.4357 112.268 71.537 112.8 71.537H114.073V73H112.515C111.553 73 110.831 72.7783 110.349 72.335C109.868 71.8917 109.627 71.1633 109.627 70.15V64.013H108.278V62.588H109.627V59.966H111.356V62.588H114.073V64.013H111.356ZM120.709 73.171C119.734 73.171 118.847 72.9493 118.049 72.506C117.264 72.0627 116.643 71.4357 116.187 70.625C115.744 69.8017 115.522 68.8517 115.522 67.775C115.522 66.711 115.75 65.7737 116.206 64.963C116.675 64.1397 117.308 63.5127 118.106 63.082C118.904 62.6387 119.797 62.417 120.785 62.417C121.773 62.417 122.666 62.6387 123.464 63.082C124.262 63.5127 124.889 64.1333 125.345 64.944C125.814 65.7547 126.048 66.6983 126.048 67.775C126.048 68.8517 125.807 69.8017 125.326 70.625C124.857 71.4357 124.218 72.0627 123.407 72.506C122.596 72.9493 121.697 73.171 120.709 73.171ZM120.709 71.651C121.33 71.651 121.912 71.5053 122.457 71.214C123.002 70.9227 123.439 70.4857 123.768 69.903C124.11 69.3203 124.281 68.611 124.281 67.775C124.281 66.939 124.116 66.2297 123.787 65.647C123.458 65.0643 123.027 64.6337 122.495 64.355C121.963 64.0637 121.387 63.918 120.766 63.918C120.133 63.918 119.55 64.0637 119.018 64.355C118.499 64.6337 118.081 65.0643 117.764 65.647C117.447 66.2297 117.289 66.939 117.289 67.775C117.289 68.6237 117.441 69.3393 117.745 69.922C118.062 70.5047 118.48 70.9417 118.999 71.233C119.518 71.5117 120.088 71.651 120.709 71.651ZM132.862 73.171C131.887 73.171 131 72.9493 130.202 72.506C129.417 72.0627 128.796 71.4357 128.34 70.625C127.897 69.8017 127.675 68.8517 127.675 67.775C127.675 66.711 127.903 65.7737 128.359 64.963C128.828 64.1397 129.461 63.5127 130.259 63.082C131.057 62.6387 131.95 62.417 132.938 62.417C133.926 62.417 134.819 62.6387 135.617 63.082C136.415 63.5127 137.042 64.1333 137.498 64.944C137.967 65.7547 138.201 66.6983 138.201 67.775C138.201 68.8517 137.961 69.8017 137.479 70.625C137.011 71.4357 136.371 72.0627 135.56 72.506C134.75 72.9493 133.85 73.171 132.862 73.171ZM132.862 71.651C133.483 71.651 134.066 71.5053 134.61 71.214C135.155 70.9227 135.592 70.4857 135.921 69.903C136.263 69.3203 136.434 68.611 136.434 67.775C136.434 66.939 136.27 66.2297 135.94 65.647C135.611 65.0643 135.18 64.6337 134.648 64.355C134.116 64.0637 133.54 63.918 132.919 63.918C132.286 63.918 131.703 64.0637 131.171 64.355C130.652 64.6337 130.234 65.0643 129.917 65.647C129.601 66.2297 129.442 66.939 129.442 67.775C129.442 68.6237 129.594 69.3393 129.898 69.922C130.215 70.5047 130.633 70.9417 131.152 71.233C131.672 71.5117 132.242 71.651 132.862 71.651ZM144.161 73.171C143.363 73.171 142.647 73.038 142.014 72.772C141.38 72.4933 140.88 72.1133 140.513 71.632C140.145 71.138 139.943 70.5743 139.905 69.941H141.691C141.741 70.4603 141.982 70.8847 142.413 71.214C142.856 71.5433 143.432 71.708 144.142 71.708C144.8 71.708 145.32 71.5623 145.7 71.271C146.08 70.9797 146.27 70.6123 146.27 70.169C146.27 69.713 146.067 69.3773 145.662 69.162C145.256 68.934 144.629 68.7123 143.781 68.497C143.008 68.2943 142.375 68.0917 141.881 67.889C141.399 67.6737 140.981 67.3633 140.627 66.958C140.285 66.54 140.114 65.9953 140.114 65.324C140.114 64.792 140.272 64.3043 140.589 63.861C140.905 63.4177 141.355 63.0693 141.938 62.816C142.52 62.55 143.185 62.417 143.933 62.417C145.085 62.417 146.016 62.7083 146.726 63.291C147.435 63.8737 147.815 64.6717 147.866 65.685H146.137C146.099 65.1403 145.877 64.7033 145.472 64.374C145.079 64.0447 144.547 63.88 143.876 63.88C143.255 63.88 142.761 64.013 142.394 64.279C142.026 64.545 141.843 64.8933 141.843 65.324C141.843 65.666 141.95 65.951 142.166 66.179C142.394 66.3943 142.672 66.5717 143.002 66.711C143.344 66.8377 143.812 66.9833 144.408 67.148C145.155 67.3507 145.763 67.5533 146.232 67.756C146.7 67.946 147.099 68.2373 147.429 68.63C147.771 69.0227 147.948 69.5357 147.961 70.169C147.961 70.739 147.802 71.252 147.486 71.708C147.169 72.164 146.719 72.525 146.137 72.791C145.567 73.0443 144.908 73.171 144.161 73.171ZM149.755 67.756C149.755 66.692 149.971 65.761 150.401 64.963C150.832 64.1523 151.421 63.5253 152.168 63.082C152.928 62.6387 153.771 62.417 154.695 62.417C155.607 62.417 156.399 62.6133 157.07 63.006C157.742 63.3987 158.242 63.8927 158.571 64.488V62.588H160.319V73H158.571V71.062C158.229 71.67 157.716 72.1767 157.032 72.582C156.361 72.9747 155.576 73.171 154.676 73.171C153.752 73.171 152.916 72.943 152.168 72.487C151.421 72.031 150.832 71.3913 150.401 70.568C149.971 69.7447 149.755 68.8073 149.755 67.756ZM158.571 67.775C158.571 66.9897 158.413 66.3057 158.096 65.723C157.78 65.1403 157.349 64.697 156.804 64.393C156.272 64.0763 155.683 63.918 155.037 63.918C154.391 63.918 153.802 64.07 153.27 64.374C152.738 64.678 152.314 65.1213 151.997 65.704C151.681 66.2867 151.522 66.9707 151.522 67.756C151.522 68.554 151.681 69.2507 151.997 69.846C152.314 70.4287 152.738 70.8783 153.27 71.195C153.802 71.499 154.391 71.651 155.037 71.651C155.683 71.651 156.272 71.499 156.804 71.195C157.349 70.8783 157.78 70.4287 158.096 69.846C158.413 69.2507 158.571 68.5603 158.571 67.775ZM162.595 67.756C162.595 66.692 162.811 65.761 163.241 64.963C163.672 64.1523 164.261 63.5253 165.008 63.082C165.768 62.6387 166.611 62.417 167.535 62.417C168.447 62.417 169.239 62.6133 169.91 63.006C170.582 63.3987 171.082 63.8927 171.411 64.488V62.588H173.159V73H171.411V71.062C171.069 71.67 170.556 72.1767 169.872 72.582C169.201 72.9747 168.416 73.171 167.516 73.171C166.592 73.171 165.756 72.943 165.008 72.487C164.261 72.031 163.672 71.3913 163.241 70.568C162.811 69.7447 162.595 68.8073 162.595 67.756ZM171.411 67.775C171.411 66.9897 171.253 66.3057 170.936 65.723C170.62 65.1403 170.189 64.697 169.644 64.393C169.112 64.0763 168.523 63.918 167.877 63.918C167.231 63.918 166.642 64.07 166.11 64.374C165.578 64.678 165.154 65.1213 164.837 65.704C164.521 66.2867 164.362 66.9707 164.362 67.756C164.362 68.554 164.521 69.2507 164.837 69.846C165.154 70.4287 165.578 70.8783 166.11 71.195C166.642 71.499 167.231 71.651 167.877 71.651C168.523 71.651 169.112 71.499 169.644 71.195C170.189 70.8783 170.62 70.4287 170.936 69.846C171.253 69.2507 171.411 68.5603 171.411 67.775ZM188.602 62.398C189.413 62.398 190.135 62.569 190.768 62.911C191.401 63.2403 191.902 63.7407 192.269 64.412C192.636 65.0833 192.82 65.9003 192.82 66.863V73H191.11V67.11C191.11 66.0713 190.85 65.2797 190.331 64.735C189.824 64.1777 189.134 63.899 188.26 63.899C187.361 63.899 186.645 64.1903 186.113 64.773C185.581 65.343 185.315 66.1727 185.315 67.262V73H183.605V67.11C183.605 66.0713 183.345 65.2797 182.826 64.735C182.319 64.1777 181.629 63.899 180.755 63.899C179.856 63.899 179.14 64.1903 178.608 64.773C178.076 65.343 177.81 66.1727 177.81 67.262V73H176.081V62.588H177.81V64.089C178.152 63.5443 178.608 63.1263 179.178 62.835C179.761 62.5437 180.4 62.398 181.097 62.398C181.971 62.398 182.744 62.5943 183.415 62.987C184.086 63.3797 184.587 63.956 184.916 64.716C185.207 63.9813 185.689 63.4113 186.36 63.006C187.031 62.6007 187.779 62.398 188.602 62.398ZM196.549 60.897C196.22 60.897 195.941 60.783 195.713 60.555C195.485 60.327 195.371 60.0483 195.371 59.719C195.371 59.3897 195.485 59.111 195.713 58.883C195.941 58.655 196.22 58.541 196.549 58.541C196.866 58.541 197.132 58.655 197.347 58.883C197.575 59.111 197.689 59.3897 197.689 59.719C197.689 60.0483 197.575 60.327 197.347 60.555C197.132 60.783 196.866 60.897 196.549 60.897ZM197.385 62.588V73H195.656V62.588H197.385ZM205.405 62.398C206.672 62.398 207.698 62.7843 208.483 63.557C209.268 64.317 209.661 65.419 209.661 66.863V73H207.951V67.11C207.951 66.0713 207.691 65.2797 207.172 64.735C206.653 64.1777 205.943 63.899 205.044 63.899C204.132 63.899 203.404 64.184 202.859 64.754C202.327 65.324 202.061 66.1537 202.061 67.243V73H200.332V62.588H202.061V64.07C202.403 63.538 202.865 63.1263 203.448 62.835C204.043 62.5437 204.696 62.398 205.405 62.398ZM221.985 67.395C221.985 67.7243 221.966 68.0727 221.928 68.44H213.606C213.67 69.466 214.018 70.2703 214.651 70.853C215.297 71.423 216.076 71.708 216.988 71.708C217.736 71.708 218.356 71.537 218.85 71.195C219.357 70.8403 219.712 70.3717 219.914 69.789H221.776C221.498 70.7897 220.94 71.6067 220.104 72.24C219.268 72.8607 218.23 73.171 216.988 73.171C216 73.171 215.114 72.9493 214.328 72.506C213.556 72.0627 212.948 71.4357 212.504 70.625C212.061 69.8017 211.839 68.8517 211.839 67.775C211.839 66.6983 212.055 65.7547 212.485 64.944C212.916 64.1333 213.518 63.5127 214.29 63.082C215.076 62.6387 215.975 62.417 216.988 62.417C217.976 62.417 218.85 62.6323 219.61 63.063C220.37 63.4937 220.953 64.089 221.358 64.849C221.776 65.5963 221.985 66.445 221.985 67.395ZM220.199 67.034C220.199 66.3753 220.054 65.8117 219.762 65.343C219.471 64.8617 219.072 64.5007 218.565 64.26C218.071 64.0067 217.52 63.88 216.912 63.88C216.038 63.88 215.291 64.1587 214.67 64.716C214.062 65.2733 213.714 66.046 213.625 67.034H220.199ZM229.341 62.398C230.607 62.398 231.633 62.7843 232.419 63.557C233.204 64.317 233.597 65.419 233.597 66.863V73H231.887V67.11C231.887 66.0713 231.627 65.2797 231.108 64.735C230.588 64.1777 229.879 63.899 228.98 63.899C228.068 63.899 227.339 64.184 226.795 64.754C226.263 65.324 225.997 66.1537 225.997 67.243V73H224.268V62.588H225.997V64.07C226.339 63.538 226.801 63.1263 227.384 62.835C227.979 62.5437 228.631 62.398 229.341 62.398Z" fill="white"/>
</svg>
